<svg width="125" height="125" viewBox="0 0 125 125" fill="none" xmlns="http://www.w3.org/2000/svg">
<rect width="125" height="125" fill="#D1E9F6"/>
<path d="M76.8226 36.8062L79.3826 82H73.9015L72.4903 58.4021C72.3809 56.3015 72.2933 54.1573 72.2277 51.9692C72.1839 49.7812 72.1511 47.801 72.1292 46.0287C72.1073 44.2345 72.1073 42.8998 72.1292 42.0246L64.5149 73.8933H58.8041L50.6318 42.0246C50.6756 42.8779 50.7084 44.2345 50.7303 46.0944C50.7521 47.9542 50.7521 49.9891 50.7303 52.199C50.7084 54.4089 50.6537 56.4547 50.5662 58.3364L49.3518 82H44.0021L46.5621 36.8062H54.5046L61.8236 67.7559L68.8144 36.8062H76.8226Z" fill="#464646"/>
</svg>
